<svg xmlns="http://www.w3.org/2000/svg" viewBox="0 0 612.816 612.816" width="512" height="512"><path d="M306.408 0C137.368 0 .371 136.997.371 306.037s136.997 306.779 306.037 306.779 306.037-137.813 306.037-306.037C612.445 137.739 475.448 0 306.408 0zm0 583.147c-152.203 0-276.368-124.165-276.368-276.368S154.205 29.595 306.408 29.595 582.776 153.76 582.776 306.779 458.611 583.147 306.408 583.147zm15.205-151.387c0 8.827-7.195 16.021-16.021 16.021-8.827 0-16.021-7.195-16.021-16.021 0-8.827 7.195-16.021 16.021-16.021s16.021 7.195 16.021 16.021zm-31.226-78.549v-180.24c0-8.011 6.379-14.39 14.39-14.39 8.011 0 14.39 6.379 14.39 14.39v180.24c0 8.011-6.379 14.39-14.39 14.39-8.011.89-14.39-6.379-14.39-14.39z" fill="#FFF"/></svg>